<svg width="1358" height="867" viewBox="0 0 1358 867" fill="none" xmlns="http://www.w3.org/2000/svg">
<g clip-path="url(#clip0_32_1132)">
<g clip-path="url(#clip1_32_1132)">
<g opacity="0.1">
<path fill-rule="evenodd" clip-rule="evenodd" d="M1645.87 439.939C1275.74 403.259 1125.84 348.425 952.259 284.937C862.296 252.029 760.326 214.733 616.197 176.026C372.999 110.712 139.442 137.897 -13.67 172.201C-179.797 209.422 -289.463 262.697 -290.551 263.229L-300.2 255C-299.091 254.454 -187.401 200.191 -18.8994 162.439C136.836 127.548 374.5 99.9295 622.32 166.481C767.348 205.431 869.765 242.891 960.124 275.943C1139.43 341.53 1281.06 393.332 1648.29 429.726L1645.87 439.939Z" fill="#0074E1"/>
<path fill-rule="evenodd" clip-rule="evenodd" d="M1645.11 517.205C1286.55 470.37 1143.82 420.188 978.549 362.087C889.383 330.736 788.314 295.204 641.204 255.986C398.792 191.361 158.49 224.249 -0.403809 263.215C-172.908 305.522 -289.185 363.815 -290.342 364.399L-300.2 356.365C-299.027 355.774 -180.836 296.516 -6.08582 253.661C155.509 214.028 400.049 180.616 647.311 246.54C795.216 285.971 896.68 321.643 986.204 353.114C1157.1 413.197 1292.09 460.656 1648.29 507.184L1645.11 517.205Z" fill="#0074E1"/>
<path fill-rule="evenodd" clip-rule="evenodd" d="M1644.38 600.415C1294.34 542.471 1166.06 496.388 1017.53 443.031C919.566 407.837 818.267 371.45 640.725 327.14C400.975 267.317 160.927 307.095 1.77802 351.01C-171.272 398.751 -288.901 461.581 -290.069 462.212L-300.2 454.196C-299.019 453.56 -179.907 389.901 -4.83606 341.551C157.112 296.824 401.559 256.33 646.406 317.437C824.977 361.996 926.768 398.565 1025.21 433.926C1172.78 486.941 1300.23 532.726 1648.29 590.341L1644.38 600.415Z" fill="#0074E1"/>
<path fill-rule="evenodd" clip-rule="evenodd" d="M1654.28 663.813C1326.83 610.127 1198.2 564.717 1062.03 516.638C958.907 480.229 852.269 442.581 651.513 398.047C408.536 344.155 168.457 387.226 9.85104 432.862C-162.587 482.472 -278.828 545.757 -279.985 546.388L-290.294 538.542C-289.125 537.898 -171.446 473.794 2.96411 423.572C164.286 377.118 408.654 333.285 656.681 388.308C858.714 433.123 965.954 470.986 1069.66 507.601C1204.93 555.357 1332.69 600.465 1658.2 653.83L1654.28 663.813Z" fill="#0074E1"/>
<path fill-rule="evenodd" clip-rule="evenodd" d="M1653.61 741.079C1343.21 681.233 1211.84 635.147 1084.8 590.577C973.652 551.586 868.669 514.755 651.664 470.622C543.647 448.655 427.573 444.178 306.652 457.331C209.697 467.874 109.41 489.701 8.58868 522.211C-163.283 577.626 -278.307 645.649 -279.446 646.331L-290.294 638.859C-289.134 638.172 -172.442 569.157 1.43069 513.096C162.307 461.226 406.544 410.07 656.477 460.9C874.957 505.33 980.6 542.392 1092.44 581.626C1218.76 625.945 1349.39 671.77 1658.2 731.309L1653.61 741.079Z" fill="#0074E1"/>
</g>
</g>
</g>
<defs>
<clipPath id="clip0_32_1132">
<rect width="1358" height="867" fill="white"/>
</clipPath>
<clipPath id="clip1_32_1132">
<rect width="1958.4" height="615.158" fill="white" transform="translate(-300.2 125.921)"/>
</clipPath>
</defs>
</svg>
